PathFileType	4	(X/Y/Z)	 control3min.trc
DataRate	CameraRate	NumFrames	NumMarkers	Units	OrigDataRate	OrigDataStartFrame	OrigNumFrames
200	200	8	35	m	200	501	1000
Frame#	Time	C7			LSH			RSH			MAN			RASI			LASI			HIPR			HIPL			RPSI			LPSI			COX			RTHI1			RTHI2			RTHI3			RTHI4			RSHA1			RSHA2			RSHA3			RSHA4			RHEEL			RMET5			RMET1			RTOE			LTHI1			LTHI2			LTHI3			LTHI4			LSHA1			LSHA2			LSHA3			LSHA4			LHEEL			LMET5			LMET1			LTOE			
		X1	Y1	Z1	X2	Y2	Z2	X3	Y3	Z3	X4	Y4	Z4	X5	Y5	Z5	X6	Y6	Z6	X7	Y7	Z7	X8	Y8	Z8	X9	Y9	Z9	X10	Y10	Z10	X11	Y11	Z11	X12	Y12	Z12	X13	Y13	Z13	X14	Y14	Z14	X15	Y15	Z15	X16	Y16	Z16	X17	Y17	Z17	X18	Y18	Z18	X19	Y19	Z19	X20	Y20	Z20	X21	Y21	Z21	X22	Y22	Z22	X23	Y23	Z23	X24	Y24	Z24	X25	Y25	Z25	X26	Y26	Z26	X27	Y27	Z27	X28	Y28	Z28	X29	Y29	Z29	X30	Y30	Z30	X31	Y31	Z31	X32	Y32	Z32	X33	Y33	Z33	X34	Y34	Z34	X35	Y35	Z35	
501	2.5050	-0.364300	1.392741	-0.537331	-0.298208	1.392041	-0.711400	-0.292935	1.370615	-0.372432	-0.229495	1.337600	-0.541283	-0.209007	0.953669	-0.429702	-0.221912	0.945426	-0.658711	-0.272964	0.998483	-0.398116	-0.276790	1.006363	-0.682054	-0.372512	0.981247	-0.484761	-0.376461	0.981169	-0.585416	-0.374458	0.992047	-0.533087	-0.280324	0.749242	-0.364069	-0.253613	0.696170	-0.364648	-0.194982	0.723843	-0.372406	-0.216172	0.781272	-0.373460	-0.295180	0.364987	-0.355135	-0.316848	0.327854	-0.360447	-0.262701	0.306152	-0.377848	-0.246214	0.343055	-0.376372	-0.434133	0.106781	-0.407630	-0.291863	0.030182	-0.364887	-0.267862	0.036062	-0.445424	-0.241642	0.028209	-0.441008	-0.306536	0.752447	-0.712369	-0.286120	0.694515	-0.711320	-0.223713	0.710844	-0.709608	-0.234967	0.769895	-0.710899	-0.362458	0.345040	-0.688923	-0.379410	0.308272	-0.684138	-0.320705	0.287168	-0.692898	-0.310945	0.329910	-0.696664	-0.466722	0.101354	-0.633769	-0.339103	0.032401	-0.698991	-0.292000	0.037257	-0.637243	-0.269687	0.028351	-0.639266	
502	2.5100	-0.364429	1.397826	-0.537551	-0.298040	1.397772	-0.711201	-0.293466	1.376322	-0.372747	-0.229710	1.343265	-0.541209	-0.208576	0.958747	-0.429881	-0.221230	0.950554	-0.658615	-0.272306	1.004100	-0.398495	-0.276156	1.012263	-0.681886	-0.371719	0.986487	-0.484930	-0.375629	0.986498	-0.585588	-0.373747	0.997184	-0.533255	-0.280339	0.754312	-0.363724	-0.253900	0.701109	-0.364253	-0.195167	0.728479	-0.372324	-0.216090	0.786005	-0.373433	-0.296465	0.369189	-0.354488	-0.317755	0.331789	-0.359690	-0.263285	0.310551	-0.376675	-0.247168	0.347626	-0.375306	-0.432116	0.110057	-0.407198	-0.291318	0.030503	-0.364903	-0.267721	0.036081	-0.445392	-0.241777	0.028243	-0.441056	-0.306324	0.757795	-0.712873	-0.286160	0.699782	-0.711866	-0.223691	0.715845	-0.709853	-0.234685	0.774934	-0.711067	-0.363681	0.349201	-0.689620	-0.380275	0.312193	-0.684762	-0.321440	0.291615	-0.693885	-0.312069	0.334456	-0.697572	-0.464978	0.104727	-0.634513	-0.338404	0.032872	-0.699102	-0.291730	0.037317	-0.637224	-0.269695	0.028382	-0.639241	
503	2.5150	-0.364581	1.402918	-0.537789	-0.297867	1.403443	-0.710981	-0.294020	1.382037	-0.373111	-0.229919	1.348976	-0.541122	-0.208179	0.963805	-0.430052	-0.220573	0.955643	-0.658509	-0.271666	1.009745	-0.398914	-0.275526	1.018217	-0.681701	-0.370918	0.991750	-0.485105	-0.374796	0.991832	-0.585764	-0.373044	1.002337	-0.533424	-0.280421	0.759367	-0.363400	-0.254244	0.706038	-0.363829	-0.195412	0.733119	-0.372153	-0.216063	0.790741	-0.373348	-0.297774	0.373379	-0.353840	-0.318663	0.335718	-0.358921	-0.263838	0.314968	-0.375433	-0.248179	0.352264	-0.374090	-0.429976	0.113337	-0.406794	-0.290758	0.030829	-0.364920	-0.267566	0.036121	-0.445349	-0.241908	0.028284	-0.441075	-0.306254	0.763137	-0.713324	-0.286339	0.705037	-0.712412	-0.223804	0.720842	-0.710220	-0.234549	0.779974	-0.711319	-0.364854	0.353292	-0.690304	-0.381084	0.316083	-0.685384	-0.322130	0.296041	-0.694923	-0.313160	0.338978	-0.698545	-0.463102	0.108116	-0.635263	-0.337680	0.033338	-0.699252	-0.291417	0.037417	-0.637197	-0.269688	0.028426	-0.639230	
504	2.5200	-0.364754	1.407978	-0.538042	-0.297695	1.409017	-0.710740	-0.294583	1.387715	-0.373518	-0.230179	1.354699	-0.541038	-0.207814	0.968801	-0.430219	-0.219937	0.960662	-0.658396	-0.271056	1.015361	-0.399365	-0.274905	1.024152	-0.681500	-0.370114	0.997006	-0.485285	-0.373964	0.997144	-0.585940	-0.372348	1.007478	-0.533598	-0.280565	0.764389	-0.363087	-0.254659	0.710931	-0.363388	-0.195719	0.737718	-0.371893	-0.216093	0.795431	-0.373212	-0.299093	0.377541	-0.353190	-0.319548	0.339618	-0.358141	-0.264362	0.319380	-0.374147	-0.249219	0.356918	-0.372779	-0.427715	0.116606	-0.406396	-0.290182	0.031156	-0.364942	-0.267384	0.036192	-0.445284	-0.242026	0.028336	-0.441049	-0.306325	0.768441	-0.713719	-0.286654	0.710259	-0.712957	-0.224051	0.725802	-0.710696	-0.234552	0.784984	-0.711653	-0.365976	0.357327	-0.690989	-0.381833	0.319912	-0.685987	-0.322773	0.300408	-0.695988	-0.314214	0.343447	-0.699562	-0.461096	0.111509	-0.636034	-0.336930	0.033804	-0.699439	-0.291061	0.037557	-0.637167	-0.269669	0.028486	-0.639244	
505	2.5250	-0.364948	1.412981	-0.538306	-0.297529	1.414456	-0.710483	-0.295143	1.393322	-0.373964	-0.230584	1.360337	-0.540990	-0.207482	0.973705	-0.430384	-0.219321	0.965582	-0.658278	-0.270497	1.020900	-0.399838	-0.274288	1.030012	-0.681284	-0.369311	1.002222	-0.485467	-0.373135	1.002407	-0.586119	-0.371657	1.012583	-0.533783	-0.280776	0.769355	-0.362793	-0.255139	0.715755	-0.362933	-0.196090	0.742256	-0.371562	-0.216183	0.800057	-0.373026	-0.300415	0.381635	-0.352561	-0.320413	0.343451	-0.357376	-0.264864	0.323743	-0.372859	-0.250292	0.361549	-0.371399	-0.425330	0.119844	-0.406010	-0.289587	0.031487	-0.364981	-0.267165	0.036304	-0.445190	-0.242115	0.028401	-0.440962	-0.306526	0.773686	-0.714072	-0.287092	0.715421	-0.713492	-0.224422	0.730704	-0.711272	-0.234687	0.789930	-0.712054	-0.367045	0.361272	-0.691653	-0.382515	0.323653	-0.686554	-0.323359	0.304713	-0.697063	-0.315227	0.347836	-0.700598	-0.458968	0.114890	-0.636815	-0.336154	0.034277	-0.699646	-0.290679	0.037739	-0.637139	-0.269645	0.028567	-0.639297	
506	2.5300	-0.365129	1.417862	-0.538552	-0.297371	1.419750	-0.710212	-0.295691	1.398826	-0.374440	-0.231058	1.365838	-0.540978	-0.207176	0.978479	-0.430549	-0.218728	0.970376	-0.658158	-0.269983	1.026302	-0.400320	-0.273668	1.035745	-0.681063	-0.368508	1.007370	-0.485657	-0.372312	1.007596	-0.586302	-0.370980	1.017626	-0.533970	-0.281050	0.774218	-0.362531	-0.255680	0.720486	-0.362474	-0.196515	0.746704	-0.371172	-0.216325	0.804589	-0.372805	-0.301735	0.385617	-0.351972	-0.321245	0.347196	-0.356652	-0.265341	0.328028	-0.371599	-0.251429	0.366151	-0.369906	-0.422833	0.123034	-0.405603	-0.288975	0.031831	-0.365044	-0.266891	0.036470	-0.445056	-0.242155	0.028488	-0.440810	-0.306840	0.778851	-0.714380	-0.287640	0.720501	-0.714016	-0.224902	0.735530	-0.711921	-0.234936	0.794793	-0.712509	-0.368053	0.365070	-0.692245	-0.383124	0.327288	-0.687063	-0.323889	0.308915	-0.698131	-0.316193	0.352119	-0.701630	-0.456732	0.118233	-0.637614	-0.335343	0.034759	-0.699854	-0.290289	0.037960	-0.637134	-0.269627	0.028672	-0.639407	
507	2.5350	-0.365296	1.422587	-0.538781	-0.297219	1.424878	-0.709931	-0.296209	1.404193	-0.374919	-0.231544	1.371159	-0.541002	-0.206896	0.983095	-0.430717	-0.218161	0.975025	-0.658041	-0.269500	1.031515	-0.400803	-0.273049	1.041304	-0.680845	-0.367707	1.012421	-0.485853	-0.371494	1.012683	-0.586478	-0.370323	1.022588	-0.534153	-0.281387	0.778955	-0.362308	-0.256279	0.725103	-0.362024	-0.196987	0.751056	-0.370726	-0.216523	0.809006	-0.372551	-0.303027	0.389460	-0.351429	-0.322052	0.350820	-0.356006	-0.265799	0.332203	-0.370396	-0.252470	0.370539	-0.368624	-0.420245	0.126161	-0.405143	-0.288349	0.032204	-0.365146	-0.266551	0.036699	-0.444875	-0.242126	0.028606	-0.440576	-0.307248	0.783914	-0.714646	-0.288279	0.725481	-0.714528	-0.225472	0.740258	-0.712631	-0.235279	0.799557	-0.713001	-0.368983	0.368711	-0.692738	-0.383657	0.330783	-0.687512	-0.324355	0.312998	-0.699170	-0.317105	0.356271	-0.702632	-0.454409	0.121495	-0.638431	-0.334491	0.035264	-0.700042	-0.289914	0.038205	-0.637165	-0.269629	0.028810	-0.639605	
508	2.5400	-0.365448	1.427136	-0.538990	-0.297073	1.429817	-0.709648	-0.296681	1.409391	-0.375397	-0.232067	1.376265	-0.541064	-0.206634	0.987532	-0.430894	-0.217619	0.979504	-0.657925	-0.269042	1.036509	-0.401274	-0.272404	1.046630	-0.680638	-0.366912	1.017351	-0.486049	-0.370683	1.017654	-0.586657	-0.369680	1.027441	-0.534344	-0.281774	0.783542	-0.362119	-0.256940	0.729573	-0.361589	-0.197507	0.755261	-0.370232	-0.216773	0.813271	-0.372276	-0.304279	0.393155	-0.350956	-0.322819	0.354295	-0.355451	-0.266234	0.336237	-0.369269	-0.253401	0.374710	-0.367565	-0.417584	0.129221	-0.404679	-0.287699	0.032627	-0.365307	-0.266136	0.037006	-0.444631	-0.242013	0.028755	-0.440243	-0.307727	0.788856	-0.714872	-0.288987	0.730343	-0.715019	-0.226114	0.744875	-0.713383	-0.235700	0.804196	-0.713512	-0.369836	0.372201	-0.693160	-0.384104	0.334119	-0.687899	-0.324747	0.316938	-0.700169	-0.317951	0.360271	-0.703581	-0.452027	0.124656	-0.639270	-0.333594	0.035816	-0.700194	-0.289571	0.038477	-0.637252	-0.269662	0.028997	-0.639922	
